<svg xmlns="http://www.w3.org/2000/svg" viewBox="0 0 517.913 446.706" width="1035.827" height="893.412" xmlns:v="https://vecta.io/nano"><style><![CDATA[.B{stroke-width:4}.C{fill:none}.D{stroke-linecap:round}.E{fill-opacity:.6}.F{fill:#2f9e44}.G{stroke:transparent}.H{stroke-opacity:.6}.I{fill-rule:evenodd}.J{stroke-opacity:.2}]]></style><g class="I"><path d="M7.145 431.895l13.1-47.85 94.15-138.97 53.95-110.1 35.3-72.73 97.47-48.63 30.63 44.52 54.67 36 41.46 146.92 53.6 46.14 26.41 107.46-5.6 37.63-488.81-.72" fill="#40c057"/><path d="M14.445 434.945c2.29-17.59-.74-22.51 7.37-47.63m-9.63 46.75c.38-17.02 4.16-29.05 8.13-49.97m.84-1.98c35.28-50.96 72.98-107.02 98.18-139.03m-99.41 140.29c22.64-29.05 40.78-60.54 94.15-140.04m1.09 1.51c10.04-23.23 18.58-43.88 53.63-104.05m-53.82 105.51c18.39-43.5 38.96-85.67 50.46-110.01m3.27-.07c5.86-20.5 22.52-48.25 34.13-78.02m-35.58 81.82c16.15-30.37 29.91-63.07 37.46-80.17m1.26-4.85c38.39-13.76 71.19-29.66 95.16-45.01m-97.06 48.21c31.88-10.48 60.13-24.25 101.78-43.8m-2.68 1.42c14.64 15.98 22.74 34.22 33.57 48.52m-30.9-51.85c2.39 9.28 10.4 20.05 28.57 49.3m.46-3.97c16.64 15.71 34.83 28.5 54.41 32.52m-55.17-27.85c13.47 5.68 28.27 14.96 50.42 29.55m2.72-3.97c10.93 52.94 30.09 98.18 33.26 150.3m-32.01-147.87c16.01 57.78 29.87 117.02 35.6 150.5m1.46.91c23.5 21.04 47.62 37.78 54.88 50.43m-56.55-53.2l60.75 50.81m-.26 1.28c4.42 16.12 11.84 38.32 23.26 99.87m-23.36-104.16c4.11 35.79 10.59 68.45 18.95 105.35m4.56 5.55c-5.72 8.44-2.67 18.31.12 36.11m-3.17-38.87c.66 8.58 1.31 16.93.17 39.29m.21 2.33c-113.26-2.86-228-1.69-495.12-4.21m495.8 3.05l-494.95-2.98m-.07-.39" stroke="#2f9e44" class="B C D"/></g><g stroke="#fff" class="B C D"><path d="M250.858 50.399c-12.38 2-25.85 9.75-37.07 14.32m40.66-17.76c-13.53 8.54-26.2 14.99-40.54 22.13m3 .72c-15.94 25.69-28.48 61.97-33.38 75.4m32.74-75.93c-12.14 26.08-24.87 55.56-32.57 76.52m-1.55.41c-8.21 8.24-13.83 20.24-15.78 23.14m15.06-24.48c-4.04 10.36-11.3 14.64-17.04 25.14m4.88.78c-13.66 16.89-24.86 40.78-36.33 73.56m32.08-76.71c-7.04 19.49-14.49 40.37-34.94 77.92m.39-3.82c-20.08 32.72-47.73 66.17-74.91 113.66m75.56-110.21c-15.89 23.65-33 44.76-75.87 107.54"/><path d="M260.78 53.244c-15.92 5.16-29.22 16.18-40.46 18.67m38.22-20.66c-11.55 5.91-20.52 11.81-38.58 20.5m-1.32-2.53c-5.69 20.69-11.52 44.43-29.3 83.92m32.93-81.99c-5.31 17.57-14.87 33.14-33.25 78.15m-2.98-1.65c-.13 7.84-7.93 13.24-14.86 27.69m18.23-23.66c-7.13 8.89-14.26 16.37-15.54 21.42m1.9-2.12c-18.66 29.85-31.02 63.74-37.66 76.07m34.68-75.61c-7.27 15.85-14.79 33.79-36.28 78.29m1.53-.47c-31.41 35.32-57.44 74.36-79.78 103.9m78.42-104.18l-78.03 108.58" stroke-opacity=".1"/><path d="M306.236 33.089l20.88 28.13m-22.65-29.15c5.35 8.01 11.12 15.42 22.21 30.97m-1.04.31c6.55 3.6 17.18 7.25 23.78 15.47m-23.06-15.56c7.84 3.88 14.92 7.6 24.45 14.24"/><path d="M296.43 35.224c7.02 7.19 22.1 20.01 38.62 34.85m-35.79-34.83c7.04 7.49 16.16 17.2 34.29 37.73m-1.53-3.71c9.28 3.26 12.35 6.77 24.15 18.89m-24.43-15.32c8.31 2.49 15.16 9.12 27.17 13.08" class="J"/></g><g class="I E"><path d="M419.857 261.559l48.7 38.57 19.58 126.7-101.48-59.53 32.27-104.03" class="F"/><path d="M419.017 259.569c12.48 14.76 33.69 25.17 43.94 40.19m-45.7-38.1c19.39 16.03 36.51 29.43 49.56 38.41m1.71-4.26c.96 49.8 14.01 89.03 13.97 132.19m-15.07-128c.08 22.53 4.19 51.81 17.2 125.04m.64-.78c-23.93-16.48-57.45-34.07-96.93-60.99m96.25 64.38c-22.34-13.75-41.29-27.2-97.74-59.66m-2.5-2.37c9.44-25.14 17.98-57.38 32.62-101.83m-30.87 104.72c7.11-27.02 17.6-54.47 33.04-106.56m-1.9 1.61" class="B C D G H"/><path d="M429.645 263.986l51.35 31.65 13.95 129.21-97.71-64.51 34.78-96.53" class="F"/><path d="M426.715 260.646c13.45 10.09 30.31 15.73 47 34.23m-46.47-34.83c19.29 11.72 33.38 25.45 51.63 37.2m-3.31 2.17c8.83 39.09 11.94 77.69 24.05 122.87m-20.56-128.27c7.48 41.98 14.66 83 19.29 127.88m-1.35 4.46c-33.53-22.31-74.11-45.02-102.78-59.2m100.8 56.81c-30.57-22.17-67.19-42.96-95.55-61.48m2.11-2.37c7.23-34.16 17.2-72.13 27.85-96.03m-32.33 101.28c11.94-41.4 22.09-86.41 31.51-106m.27 1.44" class="B C D G H"/><path d="M45.545 403.993l119.37-196.28 9.82 77.82 105.16 2.96 13 33.6 88.28 62.08-331.71 21.69" class="F"/><path d="M44.715 404.673c42.65-63.48 78.09-125.15 119.74-191.98m-118.17 190.64c28.55-48.53 58.54-93.88 118.74-194.05m.12 4.37c.63 11.59 1.89 27.86 8.62 70.1m-8.62-74.78c6.22 27.51 8.83 51.29 8.66 78.04m3.64-3.17c38.98 6.24 71.6 6.96 105.78.39m-106.57 4.21c40.5-3.61 81.88-2.94 105.39-.12m2.66-3.69c4.88 15.49 7.88 32.56 15.85 42.75m-18.74-42.41c6.42 14.11 10.34 23.6 15.41 40.95m-3.9 1.03c23.59 16.18 43.39 28.05 84.93 60.21m-80.66-63.35c33.23 24.1 63.78 47.07 84.03 64.05m1-2.1l-338.06 18.24m336.67-16.83c-119.24 2.59-238.82 8.71-334.95 18.2m.9-1.33" class="B C D G H"/><path d="M54.935 411.773l118.55-191.45 7.73 73.59 112.45 2.53 10.24 37.98 85.94 64.37-329.34 19.16" class="F"/><path d="M56.125 411.203l118.36-192.33m-117.84 194.17c25.76-40.1 48.52-81.13 118.51-193.51m-3.33 1.05c10.21 32.23 9.98 59.51 12.22 76.75m-9.52-75.8c.78 26.13 3.9 50.6 11.88 74.22m-.2-.97c30.95-.12 61.06.39 105.43 3.07m-105.81-1.52l108.18 1.14m-4.84-2.11c4.02 11.4 10.3 18.76 17.49 41.32m-15.58-41.66c5.34 14.24 10.65 28.91 17.24 40.38m-.57-1.53c19.12 14.02 33.4 22.35 81.66 61.4m-80.8-60.97c23.77 23.56 54.96 43.88 81.84 60.31m1.82 2.53l-332.64 16.49m332.79-18c-103.87 7.53-205.82 14.49-336.19 17.76m.96.65" class="B C D G H"/><path d="M177.457 190.747l13.71 78.51 106.37 7.38 11.61 38.87 58.56 48.41 40.76-116.37-78.19-55.04 40.01-86.63-92.44-51.53-106.12 140.51" class="F"/><path d="M172.837 191.947c9.93 27.55 18.92 51.93 23.14 80.09m-19.85-78.76c4.64 22.54 11.91 45.12 16.46 77.64m-.03-2.25c40.43 2.94 80.73 7.89 104.68 7.94m-104.96-3.78c30.4 1.81 57.64 3.69 102.82.98m3.73.52c2.7 8.68 3.61 23.56 10.87 38.97m-13.97-37.96c4.81 13.1 8.99 30.2 10.89 39.84m3.01-1.96c20.92 20.2 41.5 35.92 57.87 47.66m-59.27-45.69c13.89 14 27.8 23.84 61.45 45.67m1.38 2.77c10.94-48.94 29.8-86.79 35.81-112.81m-37.3 112.41c8.24-29.87 17.31-52.81 38.99-116.23m1.75-1.42c-35.55-18.95-59.22-38.63-77.65-53.96m75.14 58.44c-20.55-18.17-41.22-33.8-76.62-56.05m3.01-.92c6.29-17.51 18-35.34 39.41-84.26m-44.5 83.28c20.21-29.92 33.41-60.7 44.55-81.76m2.77-4.12c-27.86-16.11-60.82-29.3-99.82-51.03m97.75 52.09c-22.33-12.98-43.26-23.74-96.45-54.95m-2.03-3.03c-33.27 43.26-64.87 84.16-99.29 143.51m100.17-141.9c-20.13 30.64-39.15 58.44-101.96 143.03m.9-.85" class="B C D G H"/><path d="M186.642 199.144l16.52 85.4 101.33 2.3 6.82 37.46 67.82 45.24 36.37-112.64-76.74-50.3 42.84-90.17-100.06-56.68-94.47 143.52" class="F"/><path d="M182.552 206.134c10.39 21.99 11.98 48.9 22.51 75.59m-21.59-79.72c8.27 23.65 12.36 46.85 19.64 81.62m-3.41-2.38c40.54 2.9 79.22-1.76 102.09 4.52m-99.09-3.3c26.62-4.1 56.79-.08 102.18 1.6m-2.53 1.78c8.08 12.7 6.1 17.55 14 39.59m-14.38-43.82c6.52 16.74 9.62 32.2 13.39 42.95m-4.13 4.43c16.15 3.52 25.43 15.53 67.62 44.46m-64.17-47.15c14.83 10.02 33.12 25.25 59.51 45.5m-.18-1.45c14-27.3 20.95-49.52 44.04-116.28m-41.61 114.93c14.61-33.76 28.8-71.67 41.62-110.25m-.1-2.58c-28.2-17.37-55.59-33.68-82.37-52.5m81.84 55.26c-21.62-18.64-47.63-34.46-80.72-56.35m3.56-2.8c4.12-15.8 18.08-36.01 44.75-80.73m-46.65 84.98c14.36-27.52 29.71-52.18 41.28-83.8m-.63-2.28c-33.24-19.92-69.24-41.27-93.18-58.15m95.42 58.7c-25.94-13.06-50.53-30.32-97.42-58.33m-.6 1.08c-19.81 29.3-36.47 56.79-102.15 141.45m103.96-140.13c-22.9 32.13-42.45 63.8-102.03 141.42m.58-1.33" class="B C D G H"/></g><g stroke="#fff" class="B C D"><path d="M381.422 126.804c-3.38 16.35-5.4 32.91-20.44 54.8m18.38-52.73c-6.67 18.38-13.14 37.32-15.84 54.77m4.38-.73c6.64 8.41 17.73 18.66 32.04 36.93m-34.34-36.2c10.31 10.86 20.23 24.18 31.71 36.91"/><path d="M385.144 123.703c-6.87 14.34-7.6 30.06-18.87 54.75m18.1-54.4c-7 17.69-8.09 35.32-15.03 56.22m-3.45-4.17c12.3 15.48 19.97 26.22 34.43 39.97m-29-37.73c11.93 15.07 25.08 28.24 33.09 37.05" class="J"/></g></svg>